<svg width="900" height="1100" viewBox="0 0 900 1100" xmlns="http://www.w3.org/2000/svg">
  <defs>
    <linearGradient id="nailGrad" x1="0%" y1="0%" x2="100%" y2="100%">
      <stop offset="0%" stop-color="#E4C888"/>
      <stop offset="55%" stop-color="#C5A059"/>
      <stop offset="100%" stop-color="#9C7C3C"/>
    </linearGradient>
    <filter id="grain">
      <feTurbulence type="fractalNoise" baseFrequency="0.9" numOctaves="3" stitchTiles="stitch" result="noise"/>
      <feColorMatrix in="noise" type="matrix" values="0 0 0 0 0  0 0 0 0 0  0 0 0 0 0  0 0 0 0.04 0"/>
    </filter>
    </defs>
  <rect width="900" height="1100" fill="#EFEAE0"/>
  <g transform="rotate(-14 220 560)">
    <path d="M125.0 753.2
             C 125.0 491.0 159.2 330.0 220 330.0
             C 280.8 330.0 315.0 491.0 315.0 753.2
             C 315.0 790.0 125.0 790.0 125.0 753.2 Z"
          fill="url(#nailGrad)" stroke="#1C1C1C" stroke-opacity="0.06" stroke-width="1"/>
    </g><g transform="rotate(-5 400 560)">
    <path d="M305.0 753.2
             C 305.0 491.0 339.2 330.0 400 330.0
             C 460.8 330.0 495.0 491.0 495.0 753.2
             C 495.0 790.0 305.0 790.0 305.0 753.2 Z"
          fill="url(#nailGrad)" stroke="#1C1C1C" stroke-opacity="0.06" stroke-width="1"/>
    </g><g transform="rotate(5 580 560)">
    <path d="M485.0 753.2
             C 485.0 491.0 519.2 330.0 580 330.0
             C 640.8 330.0 675.0 491.0 675.0 753.2
             C 675.0 790.0 485.0 790.0 485.0 753.2 Z"
          fill="url(#nailGrad)" stroke="#1C1C1C" stroke-opacity="0.06" stroke-width="1"/>
    </g><g transform="rotate(14 760 560)">
    <path d="M665.0 753.2
             C 665.0 491.0 699.2 330.0 760 330.0
             C 820.8 330.0 855.0 491.0 855.0 753.2
             C 855.0 790.0 665.0 790.0 665.0 753.2 Z"
          fill="url(#nailGrad)" stroke="#1C1C1C" stroke-opacity="0.06" stroke-width="1"/>
    </g>
  <rect width="900" height="1100" filter="url(#grain)" opacity="0.6"/>
</svg>